<mxfile host="app.diagrams.net" agent="Mozilla/5.0 (Windows NT 10.0; Win64; x64) AppleWebKit/537.36 (KHTML, like Gecko) Chrome/131.0.0.0 Safari/537.36" version="24.8.6">
  <diagram name="Страница — 1" id="lMn-SsZzFYn53KUQTam8">
    <mxGraphModel dx="840" dy="424" grid="1" gridSize="10" guides="1" tooltips="1" connect="1" arrows="1" fold="1" page="1" pageScale="1" pageWidth="2339" pageHeight="3300" math="0" shadow="0">
      <root>
        <mxCell id="0" />
        <mxCell id="1" parent="0" />
        <mxCell id="Ld1QAaqYonKgNmdv3S9m-3" style="edgeStyle=orthogonalEdgeStyle;rounded=0;orthogonalLoop=1;jettySize=auto;html=1;" edge="1" parent="1" source="Ld1QAaqYonKgNmdv3S9m-2" target="Ld1QAaqYonKgNmdv3S9m-5">
          <mxGeometry relative="1" as="geometry">
            <mxPoint x="385" y="110" as="targetPoint" />
          </mxGeometry>
        </mxCell>
        <mxCell id="Ld1QAaqYonKgNmdv3S9m-2" value="Start" style="ellipse;whiteSpace=wrap;html=1;" vertex="1" parent="1">
          <mxGeometry x="330" y="40" width="110" height="40" as="geometry" />
        </mxCell>
        <mxCell id="Ld1QAaqYonKgNmdv3S9m-6" style="edgeStyle=orthogonalEdgeStyle;rounded=0;orthogonalLoop=1;jettySize=auto;html=1;" edge="1" parent="1" source="Ld1QAaqYonKgNmdv3S9m-5" target="Ld1QAaqYonKgNmdv3S9m-7">
          <mxGeometry relative="1" as="geometry">
            <mxPoint x="385" y="180" as="targetPoint" />
          </mxGeometry>
        </mxCell>
        <mxCell id="Ld1QAaqYonKgNmdv3S9m-5" value="string t, s" style="rounded=0;whiteSpace=wrap;html=1;" vertex="1" parent="1">
          <mxGeometry x="325" y="110" width="120" height="40" as="geometry" />
        </mxCell>
        <mxCell id="Ld1QAaqYonKgNmdv3S9m-8" style="edgeStyle=orthogonalEdgeStyle;rounded=0;orthogonalLoop=1;jettySize=auto;html=1;" edge="1" parent="1" source="Ld1QAaqYonKgNmdv3S9m-7" target="Ld1QAaqYonKgNmdv3S9m-9">
          <mxGeometry relative="1" as="geometry">
            <mxPoint x="385" y="240" as="targetPoint" />
          </mxGeometry>
        </mxCell>
        <mxCell id="Ld1QAaqYonKgNmdv3S9m-7" value="cin &amp;gt;&amp;gt; t &amp;gt;&amp;gt; s" style="shape=parallelogram;perimeter=parallelogramPerimeter;whiteSpace=wrap;html=1;fixedSize=1;" vertex="1" parent="1">
          <mxGeometry x="325" y="170" width="120" height="40" as="geometry" />
        </mxCell>
        <mxCell id="Ld1QAaqYonKgNmdv3S9m-10" style="edgeStyle=orthogonalEdgeStyle;rounded=0;orthogonalLoop=1;jettySize=auto;html=1;" edge="1" parent="1" source="Ld1QAaqYonKgNmdv3S9m-9" target="Ld1QAaqYonKgNmdv3S9m-11">
          <mxGeometry relative="1" as="geometry">
            <mxPoint x="385" y="300" as="targetPoint" />
          </mxGeometry>
        </mxCell>
        <mxCell id="Ld1QAaqYonKgNmdv3S9m-9" value="&lt;div&gt;&amp;nbsp; int len_t = t.size();&lt;/div&gt;&lt;div&gt;&amp;nbsp; &amp;nbsp; int len_s = s.size();&lt;/div&gt;" style="rounded=0;whiteSpace=wrap;html=1;" vertex="1" parent="1">
          <mxGeometry x="325" y="230" width="120" height="40" as="geometry" />
        </mxCell>
        <mxCell id="Ld1QAaqYonKgNmdv3S9m-12" style="edgeStyle=orthogonalEdgeStyle;rounded=0;orthogonalLoop=1;jettySize=auto;html=1;" edge="1" parent="1" source="Ld1QAaqYonKgNmdv3S9m-11" target="Ld1QAaqYonKgNmdv3S9m-13">
          <mxGeometry relative="1" as="geometry">
            <mxPoint x="385" y="350" as="targetPoint" />
          </mxGeometry>
        </mxCell>
        <mxCell id="Ld1QAaqYonKgNmdv3S9m-11" value="i = 0" style="rounded=0;whiteSpace=wrap;html=1;" vertex="1" parent="1">
          <mxGeometry x="347.5" y="300" width="75" height="40" as="geometry" />
        </mxCell>
        <mxCell id="Ld1QAaqYonKgNmdv3S9m-14" style="edgeStyle=orthogonalEdgeStyle;rounded=0;orthogonalLoop=1;jettySize=auto;html=1;" edge="1" parent="1" source="Ld1QAaqYonKgNmdv3S9m-13" target="Ld1QAaqYonKgNmdv3S9m-15">
          <mxGeometry relative="1" as="geometry">
            <mxPoint x="385" y="430" as="targetPoint" />
          </mxGeometry>
        </mxCell>
        <mxCell id="Ld1QAaqYonKgNmdv3S9m-20" value="True" style="edgeLabel;html=1;align=center;verticalAlign=middle;resizable=0;points=[];" vertex="1" connectable="0" parent="Ld1QAaqYonKgNmdv3S9m-14">
          <mxGeometry x="0.232" y="-2" relative="1" as="geometry">
            <mxPoint as="offset" />
          </mxGeometry>
        </mxCell>
        <mxCell id="Ld1QAaqYonKgNmdv3S9m-43" style="edgeStyle=orthogonalEdgeStyle;rounded=0;orthogonalLoop=1;jettySize=auto;html=1;exitX=1;exitY=0.5;exitDx=0;exitDy=0;" edge="1" parent="1" source="Ld1QAaqYonKgNmdv3S9m-13" target="Ld1QAaqYonKgNmdv3S9m-46">
          <mxGeometry relative="1" as="geometry">
            <mxPoint x="500" y="420" as="targetPoint" />
          </mxGeometry>
        </mxCell>
        <mxCell id="Ld1QAaqYonKgNmdv3S9m-44" value="False" style="edgeLabel;html=1;align=center;verticalAlign=middle;resizable=0;points=[];" vertex="1" connectable="0" parent="Ld1QAaqYonKgNmdv3S9m-43">
          <mxGeometry x="-0.1692" y="-1" relative="1" as="geometry">
            <mxPoint as="offset" />
          </mxGeometry>
        </mxCell>
        <mxCell id="Ld1QAaqYonKgNmdv3S9m-13" value="i &amp;lt;= len_t - len_s" style="rhombus;whiteSpace=wrap;html=1;" vertex="1" parent="1">
          <mxGeometry x="327.5" y="360" width="115" height="40" as="geometry" />
        </mxCell>
        <mxCell id="Ld1QAaqYonKgNmdv3S9m-16" style="edgeStyle=orthogonalEdgeStyle;rounded=0;orthogonalLoop=1;jettySize=auto;html=1;" edge="1" parent="1" source="Ld1QAaqYonKgNmdv3S9m-15" target="Ld1QAaqYonKgNmdv3S9m-17">
          <mxGeometry relative="1" as="geometry">
            <mxPoint x="385" y="490" as="targetPoint" />
          </mxGeometry>
        </mxCell>
        <mxCell id="Ld1QAaqYonKgNmdv3S9m-15" value="&lt;span class=&quot;hljs-type&quot;&gt;bool&lt;/span&gt; can_place = &lt;span class=&quot;hljs-literal&quot;&gt;true&lt;/span&gt;" style="rounded=0;whiteSpace=wrap;html=1;" vertex="1" parent="1">
          <mxGeometry x="325" y="430" width="120" height="30" as="geometry" />
        </mxCell>
        <mxCell id="Ld1QAaqYonKgNmdv3S9m-18" style="edgeStyle=orthogonalEdgeStyle;rounded=0;orthogonalLoop=1;jettySize=auto;html=1;" edge="1" parent="1" source="Ld1QAaqYonKgNmdv3S9m-17" target="Ld1QAaqYonKgNmdv3S9m-19">
          <mxGeometry relative="1" as="geometry">
            <mxPoint x="385" y="550" as="targetPoint" />
          </mxGeometry>
        </mxCell>
        <mxCell id="Ld1QAaqYonKgNmdv3S9m-17" value="j = 0" style="rounded=0;whiteSpace=wrap;html=1;" vertex="1" parent="1">
          <mxGeometry x="342.5" y="490" width="85" height="30" as="geometry" />
        </mxCell>
        <mxCell id="Ld1QAaqYonKgNmdv3S9m-22" style="edgeStyle=orthogonalEdgeStyle;rounded=0;orthogonalLoop=1;jettySize=auto;html=1;" edge="1" parent="1" source="Ld1QAaqYonKgNmdv3S9m-19" target="Ld1QAaqYonKgNmdv3S9m-23">
          <mxGeometry relative="1" as="geometry">
            <mxPoint x="450" y="600" as="targetPoint" />
          </mxGeometry>
        </mxCell>
        <mxCell id="Ld1QAaqYonKgNmdv3S9m-31" value="True" style="edgeLabel;html=1;align=center;verticalAlign=middle;resizable=0;points=[];" vertex="1" connectable="0" parent="Ld1QAaqYonKgNmdv3S9m-22">
          <mxGeometry x="-0.4667" y="1" relative="1" as="geometry">
            <mxPoint as="offset" />
          </mxGeometry>
        </mxCell>
        <mxCell id="Ld1QAaqYonKgNmdv3S9m-49" style="edgeStyle=orthogonalEdgeStyle;rounded=0;orthogonalLoop=1;jettySize=auto;html=1;entryX=0.5;entryY=0;entryDx=0;entryDy=0;" edge="1" parent="1" source="Ld1QAaqYonKgNmdv3S9m-19" target="Ld1QAaqYonKgNmdv3S9m-40">
          <mxGeometry relative="1" as="geometry" />
        </mxCell>
        <mxCell id="Ld1QAaqYonKgNmdv3S9m-50" value="False" style="edgeLabel;html=1;align=center;verticalAlign=middle;resizable=0;points=[];" vertex="1" connectable="0" parent="Ld1QAaqYonKgNmdv3S9m-49">
          <mxGeometry x="-0.7731" y="-3" relative="1" as="geometry">
            <mxPoint x="-11" y="33" as="offset" />
          </mxGeometry>
        </mxCell>
        <mxCell id="Ld1QAaqYonKgNmdv3S9m-19" value="j &amp;lt; len_s" style="rhombus;whiteSpace=wrap;html=1;" vertex="1" parent="1">
          <mxGeometry x="345" y="550" width="80" height="40" as="geometry" />
        </mxCell>
        <mxCell id="Ld1QAaqYonKgNmdv3S9m-24" style="edgeStyle=orthogonalEdgeStyle;rounded=0;orthogonalLoop=1;jettySize=auto;html=1;exitX=0;exitY=0.5;exitDx=0;exitDy=0;" edge="1" parent="1" source="Ld1QAaqYonKgNmdv3S9m-23" target="Ld1QAaqYonKgNmdv3S9m-25">
          <mxGeometry relative="1" as="geometry">
            <mxPoint x="400" y="730" as="targetPoint" />
          </mxGeometry>
        </mxCell>
        <mxCell id="Ld1QAaqYonKgNmdv3S9m-51" value="True" style="edgeLabel;html=1;align=center;verticalAlign=middle;resizable=0;points=[];" vertex="1" connectable="0" parent="Ld1QAaqYonKgNmdv3S9m-24">
          <mxGeometry x="-0.3176" relative="1" as="geometry">
            <mxPoint as="offset" />
          </mxGeometry>
        </mxCell>
        <mxCell id="Ld1QAaqYonKgNmdv3S9m-28" style="edgeStyle=orthogonalEdgeStyle;rounded=0;orthogonalLoop=1;jettySize=auto;html=1;" edge="1" parent="1" source="Ld1QAaqYonKgNmdv3S9m-23" target="Ld1QAaqYonKgNmdv3S9m-29">
          <mxGeometry relative="1" as="geometry">
            <mxPoint x="620" y="680" as="targetPoint" />
          </mxGeometry>
        </mxCell>
        <mxCell id="Ld1QAaqYonKgNmdv3S9m-52" value="False" style="edgeLabel;html=1;align=center;verticalAlign=middle;resizable=0;points=[];" vertex="1" connectable="0" parent="Ld1QAaqYonKgNmdv3S9m-28">
          <mxGeometry x="-0.0377" y="2" relative="1" as="geometry">
            <mxPoint x="-8" y="2" as="offset" />
          </mxGeometry>
        </mxCell>
        <mxCell id="Ld1QAaqYonKgNmdv3S9m-23" value="(t[i + j] != &#39;?&#39; and t[i + j] != s[j])" style="rhombus;whiteSpace=wrap;html=1;" vertex="1" parent="1">
          <mxGeometry x="427.5" y="610" width="172.5" height="50" as="geometry" />
        </mxCell>
        <mxCell id="Ld1QAaqYonKgNmdv3S9m-26" style="edgeStyle=orthogonalEdgeStyle;rounded=0;orthogonalLoop=1;jettySize=auto;html=1;" edge="1" parent="1" source="Ld1QAaqYonKgNmdv3S9m-25" target="Ld1QAaqYonKgNmdv3S9m-27">
          <mxGeometry relative="1" as="geometry">
            <mxPoint x="400" y="720" as="targetPoint" />
          </mxGeometry>
        </mxCell>
        <mxCell id="Ld1QAaqYonKgNmdv3S9m-25" value="can_place = false" style="rounded=0;whiteSpace=wrap;html=1;" vertex="1" parent="1">
          <mxGeometry x="350" y="660" width="100" height="30" as="geometry" />
        </mxCell>
        <mxCell id="Ld1QAaqYonKgNmdv3S9m-32" style="edgeStyle=orthogonalEdgeStyle;rounded=0;orthogonalLoop=1;jettySize=auto;html=1;" edge="1" parent="1" source="Ld1QAaqYonKgNmdv3S9m-27" target="Ld1QAaqYonKgNmdv3S9m-33">
          <mxGeometry relative="1" as="geometry">
            <mxPoint x="400" y="780" as="targetPoint" />
          </mxGeometry>
        </mxCell>
        <mxCell id="Ld1QAaqYonKgNmdv3S9m-27" value="&amp;nbsp;break;" style="rounded=0;whiteSpace=wrap;html=1;" vertex="1" parent="1">
          <mxGeometry x="365" y="720" width="70" height="30" as="geometry" />
        </mxCell>
        <mxCell id="Ld1QAaqYonKgNmdv3S9m-30" style="edgeStyle=orthogonalEdgeStyle;rounded=0;orthogonalLoop=1;jettySize=auto;html=1;exitX=0.5;exitY=1;exitDx=0;exitDy=0;" edge="1" parent="1" source="Ld1QAaqYonKgNmdv3S9m-29">
          <mxGeometry relative="1" as="geometry">
            <mxPoint x="380" y="530" as="targetPoint" />
            <Array as="points">
              <mxPoint x="650" y="710" />
              <mxPoint x="700" y="710" />
              <mxPoint x="700" y="530" />
              <mxPoint x="428" y="530" />
            </Array>
          </mxGeometry>
        </mxCell>
        <mxCell id="Ld1QAaqYonKgNmdv3S9m-29" value="j++" style="rounded=0;whiteSpace=wrap;html=1;" vertex="1" parent="1">
          <mxGeometry x="620" y="665" width="60" height="25" as="geometry" />
        </mxCell>
        <mxCell id="Ld1QAaqYonKgNmdv3S9m-34" style="edgeStyle=orthogonalEdgeStyle;rounded=0;orthogonalLoop=1;jettySize=auto;html=1;exitX=1;exitY=0.5;exitDx=0;exitDy=0;" edge="1" parent="1" target="Ld1QAaqYonKgNmdv3S9m-36">
          <mxGeometry relative="1" as="geometry">
            <mxPoint x="530" y="840" as="targetPoint" />
            <mxPoint x="400" y="800" as="sourcePoint" />
            <Array as="points">
              <mxPoint x="530" y="800" />
            </Array>
          </mxGeometry>
        </mxCell>
        <mxCell id="Ld1QAaqYonKgNmdv3S9m-35" value="True" style="edgeLabel;html=1;align=center;verticalAlign=middle;resizable=0;points=[];" vertex="1" connectable="0" parent="Ld1QAaqYonKgNmdv3S9m-34">
          <mxGeometry x="-0.1471" relative="1" as="geometry">
            <mxPoint x="18" as="offset" />
          </mxGeometry>
        </mxCell>
        <mxCell id="Ld1QAaqYonKgNmdv3S9m-39" style="edgeStyle=orthogonalEdgeStyle;rounded=0;orthogonalLoop=1;jettySize=auto;html=1;entryX=0.5;entryY=0;entryDx=0;entryDy=0;" edge="1" parent="1" source="Ld1QAaqYonKgNmdv3S9m-33" target="Ld1QAaqYonKgNmdv3S9m-40">
          <mxGeometry relative="1" as="geometry">
            <mxPoint x="480" y="840" as="targetPoint" />
          </mxGeometry>
        </mxCell>
        <mxCell id="Ld1QAaqYonKgNmdv3S9m-41" value="False" style="edgeLabel;html=1;align=center;verticalAlign=middle;resizable=0;points=[];" vertex="1" connectable="0" parent="Ld1QAaqYonKgNmdv3S9m-39">
          <mxGeometry x="-0.0474" y="2" relative="1" as="geometry">
            <mxPoint as="offset" />
          </mxGeometry>
        </mxCell>
        <mxCell id="Ld1QAaqYonKgNmdv3S9m-33" value="can_place == true" style="rhombus;whiteSpace=wrap;html=1;" vertex="1" parent="1">
          <mxGeometry x="340" y="780" width="120" height="40" as="geometry" />
        </mxCell>
        <mxCell id="Ld1QAaqYonKgNmdv3S9m-37" style="edgeStyle=orthogonalEdgeStyle;rounded=0;orthogonalLoop=1;jettySize=auto;html=1;" edge="1" parent="1" source="Ld1QAaqYonKgNmdv3S9m-36" target="Ld1QAaqYonKgNmdv3S9m-38">
          <mxGeometry relative="1" as="geometry">
            <mxPoint x="530" y="910" as="targetPoint" />
          </mxGeometry>
        </mxCell>
        <mxCell id="Ld1QAaqYonKgNmdv3S9m-36" value="&amp;nbsp;cout &amp;lt;&amp;lt; &quot;YES&quot;" style="shape=parallelogram;perimeter=parallelogramPerimeter;whiteSpace=wrap;html=1;fixedSize=1;" vertex="1" parent="1">
          <mxGeometry x="470" y="822.5" width="120" height="40" as="geometry" />
        </mxCell>
        <mxCell id="Ld1QAaqYonKgNmdv3S9m-38" value="return 0" style="ellipse;whiteSpace=wrap;html=1;" vertex="1" parent="1">
          <mxGeometry x="470" y="890" width="120" height="30" as="geometry" />
        </mxCell>
        <mxCell id="Ld1QAaqYonKgNmdv3S9m-42" style="edgeStyle=orthogonalEdgeStyle;rounded=0;orthogonalLoop=1;jettySize=auto;html=1;" edge="1" parent="1">
          <mxGeometry relative="1" as="geometry">
            <mxPoint x="275" y="842.4827586206898" as="sourcePoint" />
            <mxPoint x="385" y="350" as="targetPoint" />
            <Array as="points">
              <mxPoint x="250" y="842" />
              <mxPoint x="250" y="350" />
            </Array>
          </mxGeometry>
        </mxCell>
        <mxCell id="Ld1QAaqYonKgNmdv3S9m-40" value="i++" style="rounded=0;whiteSpace=wrap;html=1;" vertex="1" parent="1">
          <mxGeometry x="270" y="830" width="60" height="25" as="geometry" />
        </mxCell>
        <mxCell id="Ld1QAaqYonKgNmdv3S9m-47" style="edgeStyle=orthogonalEdgeStyle;rounded=0;orthogonalLoop=1;jettySize=auto;html=1;" edge="1" parent="1" source="Ld1QAaqYonKgNmdv3S9m-46" target="Ld1QAaqYonKgNmdv3S9m-48">
          <mxGeometry relative="1" as="geometry">
            <mxPoint x="520" y="460" as="targetPoint" />
          </mxGeometry>
        </mxCell>
        <mxCell id="Ld1QAaqYonKgNmdv3S9m-46" value="&amp;nbsp;cout &amp;lt;&amp;lt; &quot;NO&quot;" style="shape=parallelogram;perimeter=parallelogramPerimeter;whiteSpace=wrap;html=1;fixedSize=1;" vertex="1" parent="1">
          <mxGeometry x="470" y="415" width="100" height="25" as="geometry" />
        </mxCell>
        <mxCell id="Ld1QAaqYonKgNmdv3S9m-48" value="return 0" style="ellipse;whiteSpace=wrap;html=1;" vertex="1" parent="1">
          <mxGeometry x="475" y="460" width="90" height="30" as="geometry" />
        </mxCell>
      </root>
    </mxGraphModel>
  </diagram>
</mxfile>
